<?xml version="1.0" standalone="no"?>
<!DOCTYPE svg PUBLIC "-//W3C//DTD SVG 20010904//EN"
 "http://www.w3.org/TR/2001/REC-SVG-20010904/DTD/svg10.dtd">
<svg version="1.0" xmlns="http://www.w3.org/2000/svg"
 width="900.000000pt" height="480.000000pt" viewBox="0 0 900.000000 480.000000"
 preserveAspectRatio="xMidYMid meet">
<metadata>
Created by potrace 1.16, written by Peter Selinger 2001-2019
</metadata>
<g transform="translate(0.000000,480.000000) scale(0.100000,-0.100000)"
fill="#000000" stroke="none">
<path d="M3400 4449 c-329 -38 -586 -155 -785 -355 -206 -208 -350 -545 -420
-979 -47 -295 -48 -319 -52 -1542 l-4 -1163 1095 0 1096 0 0 930 0 930 -590 0
-590 0 0 313 c1 467 16 571 94 653 55 56 134 80 295 90 l121 7 0 563 0 564
-92 -1 c-51 -1 -127 -5 -168 -10z"/>
<path d="M5975 4454 c-378 -44 -621 -150 -826 -361 -254 -260 -382 -605 -456
-1228 -14 -120 -17 -302 -20 -1297 l-4 -1158 1095 0 1096 0 0 930 0 930 -591
0 -592 0 6 378 c7 447 17 511 95 594 47 51 198 88 360 88 l52 0 0 565 0 565
-92 -1 c-51 -1 -106 -4 -123 -5z"/>
</g>
</svg>
