<?xml version="1.0" standalone="no"?>
<!DOCTYPE svg PUBLIC "-
 "http://www.w3.org/TR/2001/REC-SVG-20010904/DTD/svg10.dtd">
<svg version="1.0" xmlns="http://www.w3.org/2000/svg"
 width="1000.000000pt" height="1000.000000pt" viewBox="0 0 1000.000000 1000.000000"
 preserveAspectRatio="xMidYMid meet">

<g transform="translate(0.000000,1000.000000) scale(0.100000,-0.100000)"
fill="#000000" stroke="none">
<path d="M4795 7683 c-95 -6 -261 -34 -374 -64 -158 -40 -310 -103 -556 -229
-115 -59 -811 -413 -1545 -785 -734 -373 -1369 -701 -1409 -728 -171 -115
-273 -258 -287 -399 -5 -54 -3 -72 10 -93 l16 -25 989 0 988 0 27 69 c15 39
59 119 98 178 66 101 124 161 877 916 443 445 831 827 861 850 30 22 101 84
158 136 57 53 129 113 160 134 68 46 69 48 51 45 -8 -1 -36 -3 -64 -5z"/>
<path d="M5144 7677 c59 -37 142 -105 226 -184 53 -49 116 -103 140 -120 25
-17 410 -397 856 -845 759 -760 816 -820 882 -921 39 -59 83 -139 98 -178 l27
-69 986 0 c608 0 992 4 1001 10 11 7 15 28 14 90 -1 72 -5 89 -39 156 -45 92
-135 187 -245 261 -41 27 -516 274 -1055 548 -539 273 -1133 575 -1320 670
-758 385 -854 433 -955 469 -186 66 -350 100 -580 120 -45 4 -52 2 -36 -7z"/>
<path d="M4902 7630 c-43 -18 -110 -70 -218 -170 -60 -56 -131 -116 -159 -135
-78 -52 -1639 -1632 -1704 -1724 -29 -42 -71 -112 -92 -156 l-40 -80 722 -3
c397 -1 724 0 726 2 2 2 6 26 10 55 l6 51 408 0 409 0 0 1085 0 1085 -22 -1
c-13 0 -33 -4 -46 -9z"/>
<path d="M5030 6556 l0 -1086 413 -2 412 -3 3 -52 3 -53 724 0 725 0 -11 27
c-21 55 -84 168 -128 228 -61 84 -1631 1667 -1696 1710 -27 19 -100 81 -161
138 -125 116 -195 165 -248 174 l-36 6 0 -1087z"/>
<path d="M4226 5363 c-3 -4 -6 -654 -6 -1445 l0 -1438 780 0 780 0 -2 1443 -3
1442 -772 2 c-424 1 -774 -1 -777 -4z m714 -1438 l0 -1264 -276 -3 c-152 -2
-278 -1 -280 1 -2 2 -4 573 -4 1268 l0 1263 280 0 280 0 0 -1265z m680 2 c0
-695 -2 -1266 -4 -1268 -2 -2 -128 -3 -280 -1 l-276 3 0 1264 0 1265 280 0
280 0 0 -1263z"/>
<path d="M4460 4750 l0 -340 200 0 200 0 0 340 0 340 -200 0 -200 0 0 -340z"/>
<path d="M4460 3920 l0 -340 200 0 200 0 0 340 0 340 -200 0 -200 0 0 -340z"/>
<path d="M4462 3100 l3 -340 198 -3 197 -2 0 343 0 342 -200 0 -200 0 2 -340z"/>
<path d="M5140 4750 l0 -340 200 0 200 0 0 340 0 340 -200 0 -200 0 0 -340z"/>
<path d="M5140 3920 l0 -340 200 0 200 0 0 340 0 340 -200 0 -200 0 0 -340z"/>
<path d="M5140 3098 l0 -343 200 3 200 3 0 339 0 340 -200 0 -200 0 0 -342z"/>
<path d="M636 5278 c-14 -19 -16 -72 -16 -373 0 -265 3 -355 13 -368 11 -16
124 -17 1756 -17 960 0 1747 3 1750 6 3 3 6 177 6 387 l0 382 -1747 3 -1747 2
-15 -22z"/>
<path d="M5860 4910 l0 -390 1743 -2 c1648 -3 1743 -2 1760 15 16 16 17 47 17
370 0 303 -2 356 -16 375 l-15 22 -1745 0 -1744 0 0 -390z"/>
<path d="M636 4438 c-14 -19 -16 -72 -16 -374 0 -320 2 -354 18 -373 l17 -21
1745 2 1745 3 0 390 0 390 -1747 3 -1747 2 -15 -22z"/>
<path d="M5860 4065 l0 -395 1744 0 1745 0 15 22 c24 34 24 712 0 746 l-15 22
-1745 0 -1744 0 0 -395z"/>
<path d="M641 3603 c-14 -10 -16 -55 -16 -390 l0 -378 1762 -3 1761 -2 -1 387
-2 388 -1744 5 c-1322 4 -1748 2 -1760 -7z"/>
<path d="M7598 3612 l-1738 -2 0 -390 0 -390 1750 -2 c963 -2 1755 -1 1760 0
13 5 14 737 0 761 -5 10 -15 20 -22 22 -7 2 -795 3 -1750 1z"/>
<path d="M600 2758 c-82 -23 -100 -63 -100 -225 0 -111 3 -132 20 -161 37 -61
44 -62 491 -56 222 2 1018 9 1769 14 3544 26 6233 65 6638 96 l84 7 -4 128
c-3 125 -4 128 -31 157 -17 17 -48 35 -72 41 -31 8 -558 11 -1789 11 l-1746 0
-2 -192 -3 -193 -852 -3 -853 -2 -1 172 c-1 95 -2 182 -3 193 -1 20 -9 20
-1756 22 -1141 1 -1767 -2 -1790 -9z"/>
<path d="M235 2360 c-4 -6 -16 -8 -26 -5 -35 11 -60 -22 -40 -53 10 -17 91
-25 108 -11 18 15 16 44 -3 63 -18 19 -30 20 -39 6z m-27 -37 c-4 -22 -22 -20
-26 1 -2 10 3 16 13 16 10 0 15 -7 13 -17z m60 0 c-2 -10 -10 -18 -18 -18 -8
0 -16 8 -18 18 -2 12 3 17 18 17 15 0 20 -5 18 -17z"/>
<path d="M236 2251 c-3 -4 -21 -7 -41 -4 -48 5 -47 -18 2 -52 47 -32 63 -32
63 0 0 16 6 25 15 25 8 0 15 7 15 16 0 10 -6 14 -15 10 -8 -3 -15 -1 -15 4 0
12 -17 13 -24 1z m-7 -30 c7 -5 12 -14 9 -21 -2 -8 -11 -5 -28 9 -17 14 -20
20 -10 21 8 0 21 -4 29 -9z"/>
<path d="M270 2125 l0 -25 -20 20 c-11 11 -33 20 -50 20 -23 0 -31 -5 -36 -24
-6 -25 1 -46 15 -46 4 0 7 10 7 23 -1 32 34 34 64 2 32 -34 40 -32 40 15 0 22
-4 40 -10 40 -5 0 -10 -11 -10 -25z"/>
<path d="M177 2032 c-22 -24 -21 -35 1 -55 36 -33 112 -13 112 28 0 20 -40 45
-71 45 -14 0 -33 -8 -42 -18z m77 -8 c24 -9 19 -33 -8 -40 -31 -7 -66 3 -66
21 0 21 41 32 74 19z"/>
<path d="M222 1928 c-5 -7 -12 -22 -14 -33 -4 -18 -6 -17 -18 8 -14 30 -33 38
-23 10 11 -31 46 -63 69 -63 23 0 54 24 54 41 0 39 -46 64 -68 37z m43 -34 c0
-10 -8 -20 -17 -22 -18 -3 -26 27 -11 42 12 11 28 0 28 -20z"/>
<path d="M160 1812 c0 -5 7 -17 15 -28 13 -17 14 -17 15 -1 0 14 9 17 50 17
28 0 50 5 50 10 0 6 -28 10 -65 10 -36 0 -65 -4 -65 -8z"/>
<path d="M160 1726 c0 -24 5 -36 14 -36 8 0 20 -2 28 -5 8 -3 18 6 25 26 14
37 38 34 38 -4 -1 -15 3 -27 7 -27 16 0 21 31 9 56 -15 33 -51 29 -69 -9 -14
-29 -32 -28 -32 3 0 10 -4 22 -10 25 -6 4 -10 -8 -10 -29z"/>
<path d="M177 1642 c-22 -24 -21 -35 1 -55 25 -22 75 -21 95 1 23 25 21 38 -5
56 -30 21 -71 20 -91 -2z m77 -8 c24 -9 19 -33 -8 -40 -31 -7 -66 3 -66 21 0
21 41 32 74 19z"/>
<path d="M226 1541 c-3 -4 -17 -6 -30 -4 -20 4 -26 0 -31 -20 -7 -26 0 -47 14
-47 5 0 6 11 3 25 -3 18 0 25 12 25 9 0 16 -7 16 -15 0 -22 17 -18 23 6 8 29
32 18 32 -14 -1 -30 12 -36 22 -11 14 37 -41 87 -61 55z"/>
<path d="M196 1451 c-4 -6 -12 -9 -17 -6 -5 4 -9 2 -9 -4 0 -5 6 -12 13 -15 9
-5 9 -7 0 -12 -10 -4 -9 -9 2 -20 8 -9 20 -12 26 -8 6 3 14 1 18 -5 5 -8 15
-9 31 -3 19 7 21 10 7 15 -23 9 -22 28 1 20 12 -4 11 0 -7 17 -17 17 -25 20
-31 10 -6 -9 -10 -8 -17 5 -7 12 -12 14 -17 6z m39 -41 c-3 -5 -10 -10 -16
-10 -5 0 -9 5 -9 10 0 6 7 10 16 10 8 0 12 -4 9 -10z"/>
<path d="M140 1280 c0 -6 38 -10 95 -10 57 0 95 4 95 10 0 6 -38 10 -95 10
-57 0 -95 -4 -95 -10z"/>
<path d="M261 1189 c-22 -18 -25 -19 -42 -3 -11 10 -22 14 -27 10 -4 -4 4 -16
17 -27 l23 -19 -46 0 c-34 0 -46 -4 -46 -15 0 -12 15 -15 75 -15 60 0 75 3 75
15 0 9 -9 15 -22 15 l-23 0 24 19 c13 10 22 23 20 29 -2 6 -14 3 -28 -9z"/>
<path d="M190 1081 c0 -27 27 -51 55 -51 24 0 45 25 45 54 0 25 -18 19 -22 -6
-2 -17 -10 -23 -28 -23 -18 0 -26 6 -28 23 -4 27 -22 30 -22 3z"/>
<path d="M206 994 c-19 -18 -20 -28 -6 -55 21 -39 90 -16 90 30 0 16 -30 41
-50 41 -10 0 -26 -7 -34 -16z m59 -29 c0 -22 -31 -33 -47 -17 -17 17 -1 44 24
40 15 -2 23 -10 23 -23z"/>
<path d="M190 900 c0 -5 -7 -10 -15 -10 -8 0 -15 -4 -15 -10 0 -5 6 -10 14
-10 8 0 17 -6 20 -12 5 -10 7 -10 12 0 3 6 21 12 40 12 34 0 56 22 39 38 -4 4
-10 1 -12 -5 -5 -15 -63 -18 -63 -3 0 6 -4 10 -10 10 -5 0 -10 -4 -10 -10z"/>
<path d="M212 810 c-19 -34 -35 -34 -40 -2 -5 30 -22 28 -22 -2 0 -50 54 -61
77 -16 17 34 38 32 38 -3 -1 -32 18 -31 23 2 8 53 -49 69 -76 21z"/>
<path d="M200 675 c-22 -26 3 -65 40 -65 35 0 58 36 45 67 -7 16 -9 15 -13 -7
-6 -40 -22 -48 -22 -12 0 25 -4 32 -19 32 -10 0 -24 -7 -31 -15z m30 -26 c0
-11 -4 -17 -10 -14 -5 3 -10 13 -10 21 0 8 5 14 10 14 6 0 10 -9 10 -21z"/>
<path d="M197 561 c-8 -22 -18 -31 -34 -31 -14 0 -23 -6 -23 -15 0 -23 138
-22 147 2 10 26 -19 68 -50 71 -24 3 -30 -2 -40 -27z m57 3 c28 -11 18 -34
-14 -34 -18 0 -30 5 -30 13 0 25 15 32 44 21z"/>
<path d="M206 464 c-19 -18 -20 -28 -6 -55 21 -39 90 -16 90 30 0 16 -30 41
-50 41 -10 0 -26 -7 -34 -16z m59 -29 c0 -22 -31 -33 -47 -17 -17 17 -1 44 24
40 15 -2 23 -10 23 -23z"/>
<path d="M140 350 c0 -5 11 -10 25 -10 15 0 25 -6 25 -14 0 -45 73 -62 92 -22
20 45 6 56 -72 56 -40 0 -70 -4 -70 -10z m128 -27 c-2 -12 -12 -18 -28 -18
-16 0 -26 6 -28 18 -3 13 3 17 28 17 25 0 31 -4 28 -17z"/>
<path d="M220 246 c-36 -13 -66 -29 -68 -37 -1 -9 20 -21 68 -35 38 -12 70
-17 70 -12 0 6 -9 12 -20 15 -14 4 -20 14 -20 34 0 22 5 29 20 29 11 0 20 7
20 15 0 8 -1 15 -2 14 -2 0 -32 -11 -68 -23z m8 -51 c-7 -7 -48 7 -48 15 0 15
45 16 48 2 2 -8 2 -15 0 -17z"/>
</g>
</svg>
