<?xml version="1.0" standalone="no"?>
<!DOCTYPE svg PUBLIC "-//W3C//DTD SVG 20010904//EN"
 "http://www.w3.org/TR/2001/REC-SVG-20010904/DTD/svg10.dtd">
<svg version="1.0" xmlns="http://www.w3.org/2000/svg"
 width="900.000000pt" height="900.000000pt" viewBox="0 0 900.000000 900.000000"
 preserveAspectRatio="xMidYMid meet">
<metadata>
Created by potrace 1.16, written by Peter Selinger 2001-2019
</metadata>
<g transform="translate(0.000000,900.000000) scale(0.100000,-0.100000)"
fill="#000000" stroke="none">
<path d="M4227 8989 c-723 -48 -1381 -248 -1997 -607 -939 -548 -1651 -1425
-1994 -2454 -275 -825 -307 -1726 -90 -2554 309 -1184 1065 -2171 2134 -2787
488 -281 1131 -493 1675 -551 390 -42 723 -43 1083 -1 815 95 1617 430 2266
949 1095 875 1717 2198 1690 3596 -17 873 -265 1675 -742 2398 -693 1050
-1793 1761 -3037 1962 -289 47 -709 68 -988 49z m-737 -2513 c244 -57 440
-163 605 -330 128 -129 218 -275 260 -421 23 -78 50 -132 74 -145 11 -5 36
-10 55 -10 50 0 79 36 123 150 75 197 143 308 259 425 177 180 410 298 668
340 107 18 293 19 402 4 330 -46 642 -238 819 -503 244 -367 320 -712 241
-1099 -74 -360 -197 -621 -493 -1038 -323 -455 -640 -772 -1108 -1105 -274
-196 -631 -416 -873 -538 l-54 -27 -91 57 c-424 266 -941 645 -1242 909 -381
335 -729 791 -906 1185 -146 325 -225 613 -236 860 -10 222 47 473 153 680 91
177 208 312 366 418 136 92 315 166 463 191 33 6 71 13 85 15 54 10 367 -4
430 -18z"/>
</g>
</svg>
