<?xml version="1.0" standalone="no"?>
<!DOCTYPE svg PUBLIC "-//W3C//DTD SVG 20010904//EN"
 "http://www.w3.org/TR/2001/REC-SVG-20010904/DTD/svg10.dtd">
<svg version="1.0" xmlns="http://www.w3.org/2000/svg"
 width="512.000000pt" height="512.000000pt" viewBox="0 0 512.000000 512.000000"
 preserveAspectRatio="xMidYMid meet">

<g transform="translate(0.000000,512.000000) scale(0.100000,-0.100000)"
fill="#000000" stroke="none">
<path d="M2612 4990 c-90 -24 -204 -83 -237 -122 l-25 -30 0 -377 0 -378 -309
-669 c-170 -367 -314 -670 -320 -672 -6 -2 -11 6 -11 17 0 39 -28 89 -59 105
-44 23 -1143 24 -1240 1 -93 -22 -177 -71 -251 -145 -74 -74 -123 -158 -145
-251 -22 -96 -22 -1852 0 -1948 41 -172 172 -320 340 -384 58 -21 73 -22 479
-25 404 -3 422 -2 490 19 138 41 262 143 324 267 l29 60 67 -29 c100 -43 189
-68 314 -90 108 -18 169 -19 1153 -19 719 0 1054 3 1091 11 123 26 266 125
325 226 65 111 81 262 42 389 -20 65 -20 69 -4 79 193 111 289 364 216 569
-12 33 -20 60 -19 61 2 1 23 16 48 32 164 111 244 318 195 506 -18 69 -53 140
-93 187 l-29 34 33 47 c218 303 74 703 -296 825 -51 17 -112 19 -762 22 -390
1 -708 5 -708 8 0 3 18 67 40 143 48 165 94 379 111 514 14 120 7 320 -15 401
-71 258 -250 492 -455 594 -67 33 -84 37 -160 39 -60 2 -108 -3 -159 -17z
m224 -209 c91 -41 233 -202 294 -332 54 -115 74 -218 67 -344 -11 -204 -62
-439 -157 -729 -54 -163 -59 -199 -34 -234 33 -48 12 -47 859 -52 l800 -5 52
-27 c107 -57 165 -130 184 -232 21 -113 -31 -237 -129 -310 -65 -49 -83 -94
-58 -148 9 -18 30 -42 46 -51 95 -57 143 -135 143 -237 1 -133 -83 -231 -222
-261 -64 -13 -101 -53 -101 -108 0 -29 10 -50 45 -95 53 -69 69 -120 62 -201
-10 -131 -80 -200 -245 -244 -81 -22 -103 -109 -44 -178 61 -73 77 -111 77
-193 0 -58 -5 -84 -22 -116 -29 -54 -89 -107 -149 -130 -47 -18 -93 -19 -1104
-19 -991 0 -1060 1 -1140 19 -112 24 -222 61 -293 98 l-57 31 0 906 0 907 80
39 c44 22 89 48 99 60 10 11 165 338 345 728 l326 707 0 355 0 354 33 17 c84
44 179 54 243 25z m-1348 -3173 l-3 -1063 -23 -43 c-35 -66 -88 -119 -150
-149 l-57 -28 -400 0 c-400 0 -400 0 -453 24 -68 31 -144 113 -169 183 -17 50
-18 106 -18 968 l0 915 26 55 c34 71 70 114 127 147 85 50 102 52 630 52 l492
1 -2 -1062z"/>
</g>
</svg>
