<?xml version="1.0" standalone="no"?>
<!DOCTYPE svg PUBLIC "-//W3C//DTD SVG 20010904//EN"
 "http://www.w3.org/TR/2001/REC-SVG-20010904/DTD/svg10.dtd">
<svg version="1.0" xmlns="http://www.w3.org/2000/svg"
 width="512.000000pt" height="512.000000pt" viewBox="0 0 512.000000 512.000000"
 preserveAspectRatio="xMidYMid meet">

<g transform="translate(0.000000,512.000000) scale(0.100000,-0.100000)"
fill="#000000" stroke="none">
<path d="M2780 4352 l0 -759 -247 -6 c-268 -7 -429 -26 -617 -72 -226 -56
-460 -149 -653 -261 -653 -379 -1101 -1020 -1227 -1759 -31 -176 -37 -347 -34
-919 l3 -570 204 225 c113 123 252 273 310 332 414 426 927 722 1506 870 232
60 491 97 671 97 l84 0 0 -761 c0 -418 4 -759 8 -757 11 4 2298 2512 2313
2536 11 17 -122 166 -1145 1288 -636 698 -1161 1271 -1167 1272 -5 2 -9 -284
-9 -756z m1132 -913 c436 -479 793 -874 793 -878 0 -4 -362 -405 -805 -890
l-805 -883 -5 523 -5 524 -230 -2 c-268 -3 -426 -15 -621 -48 -682 -115 -1298
-420 -1814 -899 l-115 -106 -3 177 c-7 400 51 707 194 1028 175 391 489 746
864 978 176 108 445 219 645 265 203 47 283 54 693 59 l392 5 0 520 c0 456 2
519 15 508 8 -6 371 -403 807 -881z"/>
</g>
</svg>
