<svg width="180" height="180" viewBox="0 0 180 180" fill="none" xmlns="http://www.w3.org/2000/svg">
<path d="M179.752 35.8211C179.185 34.1539 177.748 32.977 176.002 32.7504L162.734 31.0201C164.783 27.2216 164.208 22.3684 161.005 19.1659C159.11 17.2707 156.593 16.2284 153.914 16.2284C153.911 16.2284 153.909 16.2284 153.907 16.2284C152.337 16.2298 150.825 16.5909 149.458 17.2694L147.727 3.99788C147.499 2.25106 146.322 0.8146 144.656 0.247431C142.988 -0.318364 141.179 0.101862 139.933 1.34744L121.019 20.2576C119.98 21.2958 119.499 22.7804 119.733 24.2292L122.793 43.2685L121.918 44.146C108.744 33.9919 92.6836 28.4878 75.7743 28.4878C59.8829 28.4878 44.6701 33.3519 31.7814 42.5557C30.5946 43.403 30.3198 45.051 31.1674 46.2375C32.0149 47.424 33.6632 47.6987 34.85 46.8514C46.8376 38.2903 60.99 33.7653 75.7743 33.7653C91.6588 33.7653 106.33 39.0483 118.13 47.9445L107.414 58.6933C98.4335 52.4379 87.5256 48.763 75.7743 48.763C45.1755 48.763 20.2814 73.6511 20.2814 104.244C20.2814 134.835 45.1755 159.723 75.7743 159.723C106.373 159.723 131.267 134.835 131.267 104.244C131.267 92.6286 127.675 81.84 121.549 72.9205L132.28 62.1553C141.061 73.9093 146.268 88.4785 146.268 104.244C146.268 143.105 114.645 174.721 75.7743 174.721C36.9036 174.721 5.28013 143.105 5.28013 104.244C5.28013 86.8649 11.6606 70.1726 23.2471 57.2403C24.2196 56.1554 24.1276 54.4855 23.0424 53.5132C21.9559 52.5409 20.2869 52.6329 19.3144 53.7178C6.85842 67.6196 -6.10352e-05 85.563 -6.10352e-05 104.244C-6.10352e-05 124.479 7.88177 143.503 22.1935 157.812C36.5053 172.12 55.534 180 75.7743 180C96.0146 180 115.043 172.12 129.355 157.812C143.667 143.503 151.549 124.479 151.549 104.244C151.549 87.4417 146.108 71.4786 136.071 58.354L136.741 57.6811L155.764 60.7381C156.006 60.7765 156.248 60.7958 156.49 60.7958C157.696 60.7958 158.873 60.3178 159.738 59.4527L163.799 55.3932C164.83 54.3619 164.83 52.692 163.799 51.6606C162.767 50.6307 161.097 50.6307 160.065 51.6606L156.255 55.4701L141.411 53.0847L158.685 35.8156L173.926 37.8028L171.636 40.092C170.606 41.1234 170.606 42.7933 171.636 43.8246C172.668 44.8546 174.34 44.8546 175.37 43.8246L178.653 40.5425C179.897 39.2969 180.319 37.4883 179.752 35.8211ZM142.672 6.07292L144.661 21.3109L127.387 38.5801L125.001 23.7403L142.672 6.07292ZM125.987 104.244C125.987 131.924 103.462 154.444 75.7743 154.444C48.0862 154.444 25.5616 131.924 25.5616 104.244C25.5616 76.5625 48.0862 54.0433 75.7743 54.0433C86.0709 54.0433 95.6506 57.1579 103.626 62.4931L92.6671 73.4863C87.652 70.7205 81.8951 69.1412 75.7743 69.1412C56.4145 69.1412 40.6646 84.8887 40.6646 104.244C40.6646 123.598 56.4145 139.345 75.7743 139.345C95.1341 139.345 110.884 123.598 110.884 104.244C110.884 98.2866 109.387 92.6753 106.758 87.7562L117.753 76.7259C122.957 84.6347 125.987 94.0911 125.987 104.244ZM70.8663 109.532C72.7606 111.426 75.2798 112.469 77.9584 112.469H77.9652C80.6465 112.467 83.1657 111.421 85.06 109.521L88.8017 105.768C88.0435 112.284 82.4913 117.359 75.7743 117.359C68.5408 117.359 62.6562 111.476 62.6562 104.244C62.6562 97.2511 68.1562 91.5203 75.0586 91.1482L70.8567 95.3628C66.9584 99.2726 66.9625 105.628 70.8663 109.532ZM57.376 104.244C57.376 114.386 65.6301 122.638 75.7743 122.638C85.9185 122.638 94.1726 114.387 94.1726 104.244C94.1726 103.04 94.0517 101.865 93.8291 100.726L102.829 91.6975C104.608 95.5139 105.605 99.7642 105.605 104.244C105.605 120.688 92.2234 134.066 75.7743 134.066C59.3252 134.066 45.9448 120.688 45.9448 104.244C45.9448 87.7987 59.3252 74.4202 75.7743 74.4202C80.4281 74.4202 84.8333 75.4954 88.7619 77.4043L79.8759 86.317C78.5572 86.0135 77.185 85.85 75.7743 85.85C65.6301 85.85 57.376 94.1008 57.376 104.244ZM81.321 105.794C80.424 106.694 79.2303 107.19 77.9611 107.19C77.9597 107.19 77.9584 107.19 77.9584 107.19C76.6891 107.19 75.4968 106.697 74.5998 105.8C72.7523 103.951 72.7496 100.942 74.5957 99.0913L150.551 22.9026C151.448 22.0031 152.641 21.5073 153.91 21.5059H153.914C155.182 21.5059 156.374 22.0003 157.271 22.8971C159.12 24.7455 159.123 27.7544 157.275 29.6056L81.321 105.794Z" fill="#D1E0EA"/>
</svg>
