<svg width="142" height="100" viewBox="0 0 142 100" fill="none" xmlns="http://www.w3.org/2000/svg">
<path d="M56.3202 50.8139C55.2386 49.7278 53.4802 49.7278 52.3985 50.8139C51.3141 51.8972 51.3141 53.6583 52.3985 54.7417C53.4802 55.8278 55.2386 55.8278 56.3202 54.7417C57.4046 53.6583 57.4046 51.8972 56.3202 50.8139Z" fill="#EAEFF1"/>
<path d="M71 55.5556C66.4122 55.5556 62.6797 59.2939 62.6797 63.8889C62.6797 68.4839 66.4122 72.2222 71 72.2222C75.5878 72.2222 79.3203 68.4839 79.3203 63.8889C79.3203 59.2939 75.5878 55.5556 71 55.5556ZM71 66.6667C69.4707 66.6667 68.2266 65.4206 68.2266 63.8889C68.2266 62.3572 69.4707 61.1111 71 61.1111C72.5293 61.1111 73.7734 62.3572 73.7734 63.8889C73.7734 65.4206 72.5293 66.6667 71 66.6667Z" fill="#EAEFF1"/>
<path d="M71 41.6667C67.8998 41.6667 64.902 42.2942 62.0906 43.5319C60.6884 44.1494 60.0513 45.7883 60.6676 47.1928C61.2838 48.5972 62.9204 49.235 64.3227 48.6181C66.4263 47.6919 68.6731 47.2222 71 47.2222C80.1756 47.2222 87.6406 54.6989 87.6406 63.8889C87.6406 73.0789 80.1756 80.5556 71 80.5556C61.8244 80.5556 54.3594 73.0789 54.3594 63.8889C54.3594 63.7939 54.3591 63.7011 54.3613 63.6061C54.3968 62.0725 53.1843 60.8003 51.653 60.7647C50.1193 60.7264 48.8516 61.9433 48.8161 63.4772C48.8128 63.6156 48.8125 63.7506 48.8125 63.8889C48.8125 76.1422 58.7658 86.1111 71 86.1111C83.2342 86.1111 93.1875 76.1422 93.1875 63.8889C93.1875 51.6356 83.2342 41.6667 71 41.6667Z" fill="#EAEFF1"/>
<path d="M71 0C69.4682 0 68.2266 1.24361 68.2266 2.77778V19.4444C68.2266 20.9786 69.4682 22.2222 71 22.2222C72.5318 22.2222 73.7734 20.9786 73.7734 19.4444V2.77778C73.7734 1.24361 72.5318 0 71 0Z" fill="#EAEFF1"/>
<path d="M40.0154 20.5939L28.2505 8.81056C27.1675 7.72583 25.4113 7.72583 24.328 8.81056C23.245 9.89528 23.245 11.6542 24.328 12.7392L36.0929 24.5225C37.176 25.6072 38.9324 25.6075 40.0154 24.5225C41.0984 23.4378 41.0984 21.6789 40.0154 20.5939Z" fill="#EAEFF1"/>
<path d="M117.672 8.81056C116.589 7.72583 114.833 7.72583 113.75 8.81056L101.985 20.5939C100.902 21.6786 100.902 23.4375 101.985 24.5225C103.067 25.6072 104.824 25.6075 105.907 24.5225L117.672 12.7392C118.755 11.6544 118.755 9.89556 117.672 8.81056Z" fill="#EAEFF1"/>
<path d="M141.305 64.3639C123.687 44.3864 97.5268 27.7778 71 27.7778C44.4696 27.7778 18.3097 44.3906 0.694722 64.3639C-0.319247 65.5139 -0.210529 67.2692 0.937398 68.2847C2.0856 69.3003 3.83841 69.1914 4.85211 68.0417C5.44313 67.3714 6.04857 66.7036 6.66177 66.04C20.3667 86.78 45.2106 100 71 100C96.7894 100 121.633 86.78 135.338 66.04C135.951 66.7039 136.557 67.3717 137.148 68.0417C138.159 69.1878 139.911 69.3033 141.063 68.2847C142.211 67.2692 142.319 65.5136 141.305 64.3639ZM71 94.4445C46.6173 94.4445 23.1662 81.7558 10.6253 61.95C20.5065 52.2525 43.338 33.3333 71 33.3333C98.6623 33.3333 121.493 52.2525 131.375 61.9497C118.834 81.7558 95.3827 94.4445 71 94.4445Z" fill="#EAEFF1"/>
</svg>
